<?xml version="1.0" encoding="utf-8"?>
<!-- Generator: Adobe Illustrator 16.0.0, SVG Export Plug-In . SVG Version: 6.00 Build 0)  -->
<!DOCTYPE svg PUBLIC "-//W3C//DTD SVG 1.1//EN" "http://www.w3.org/Graphics/SVG/1.1/DTD/svg11.dtd">
<svg version="1.1" id="春分" xmlns="http://www.w3.org/2000/svg" xmlns:xlink="http://www.w3.org/1999/xlink" x="0px" y="0px"
	 width="200.014px" height="200.012px" viewBox="243 0 200.014 200.012" enable-background="new 243 0 200.014 200.012"
	 xml:space="preserve">
<path fill="#534E44" d="M276.891,94.893c0,0-1.339,17.357,6.596,28.861l6.172-31.419L276.891,94.893z"/>
<path fill="#534E44" d="M409.323,94.893c0,0,1.339,17.357-6.596,28.861l-6.172-31.419L409.323,94.893z"/>
<path fill="#FBE1D3" stroke="#652517" stroke-width="1.208" stroke-miterlimit="10" d="M302.079,120.996
	c0,9.402-1.6,19.801-8.384,19.801c-6.781,0-16.179-10.398-16.179-19.801c0-9.404,5.498-17.027,12.281-17.027
	S302.079,111.592,302.079,120.996z"/>
<rect x="331.672" y="160.211" fill="#FBE1D3" stroke="#652517" stroke-width="1.2885" stroke-miterlimit="10" width="27.028" height="20.963"/>
<path fill="#FBE1D3" stroke="#652517" stroke-width="1.208" stroke-miterlimit="10" d="M384.684,120.996
	c0,9.402,1.598,19.801,8.381,19.801s16.18-10.398,16.18-19.801c0-9.404-5.498-17.027-12.278-17.027
	C390.18,103.969,384.684,111.592,384.684,120.996z"/>
<path fill="#FBE1D3" stroke="#652517" stroke-width="1.188" stroke-miterlimit="10" d="M403.362,114.854
	c8.439,26.75-26.887,51.338-60.051,51.338s-68.422-24.563-60.05-51.338c8.019-25.644,26.886-51.339,60.05-51.339
	S395.213,89.021,403.362,114.854z"/>
<path fill="#FBE1D3" d="M398.674,87.006c0,38.86-20.226,78.191-55.991,78.191s-53.441-39.629-53.441-78.49
	c0-38.86,38.103-33.459,53.023-33.459C351.795,53.248,398.674,48.146,398.674,87.006z"/>
<path fill="#66341A" d="M311.421,109.094c3.153,0,5.71,4.598,5.71,10.268s-2.557,10.268-5.71,10.268
	c-3.152,0-5.71-4.598-5.71-10.268c0-5.412,2.327-9.844,5.279-10.24C311.133,109.104,311.275,109.094,311.421,109.094z"/>
<ellipse fill="#66341A" cx="375.553" cy="119.361" rx="5.879" ry="10.268"/>
<path fill="none" stroke="#66341A" stroke-width="0.9377" stroke-miterlimit="10" d="M339.897,124.979c0,0,3.316-5.84,6.846,0"/>
<path fill="none" stroke="#66341A" stroke-width="0.9377" stroke-miterlimit="10" d="M331.672,147.541c0,0,8.663,6.205,22.499,0"/>
<path fill="#F7D16B" d="M359.257,177.381l38.551,10.412H295.679l35.702-10.287c0,0,3.375,2.625,13.125,2.625
	S359.257,177.381,359.257,177.381z"/>
<path fill="#66341A" d="M304.655,107.39c6.38-10.527,13.529-0.159,13.529-0.159S311.86,104.256,304.655,107.39z"/>
<path fill="#66341A" d="M368.79,107.39c6.381-10.527,13.529-0.159,13.529-0.159S375.995,104.256,368.79,107.39z"/>
<path fill="#312915" d="M276.841,101.922l20.493,0.135l1.23-16.384c0,0-0.604,16,2.415,16.5l15.251-0.125
	c0,0,0.756-15.375,1.813-17.125c0,0-1.51,15.75-0.604,17l16.459,0.375c0,0-1.208-14.75,1.058-19.375c0,0-1.058,17.625,1.057,19.375
	l2.416-0.125c0,0,1.207-14.875,2.113-18.25c0,0,1.51,17.5,0.906,18.375c0,0,14.646,0.875,17.364-0.375c0,0,0.15-13-0.906-17.25
	c0,0,2.365,15.834,1.862,17.417l10.772-0.25c0,0,1.51-15.25-1.209-19.917c0,0,3.223,18.167,1.813,20l16.71-0.5
	c0,0,0.805-14.917-0.704-24c0,0,4.025,23.583,3.019,24.417c0,0,17.597,2.457,19.006,1.291c1.41-1.166,14.013-33.625-9.341-55.958
	C376.478,24.84,251.474,14.922,276.841,101.922z"/>
<path fill="#312915" d="M324.924,39.839c0,0-22.25-13.75-22-25.75c0,0,13.75,16.5,22,18c0,0-10.416-17.417-4.583-25.917
	c0,0,9.833,21,17.833,24.5c0,0-5.833-10.5-1.333-20.333c0,0,5.999,15,6.166,20.167c0,0,11.834-12.667,11.834-21.5
	c0,0,3,16.666-1,22.333c0,0,19.834-9.667,20.5-18.667c0,0,2.832,15.167-6.834,21.667"/>
</svg>
